<?xml version="1.0" encoding="UTF-8"?>
<svg width="27px" height="27px" viewBox="0 0 27 27" version="1.1" xmlns="http://www.w3.org/2000/svg" xmlns:xlink="http://www.w3.org/1999/xlink">
    <title>Group</title>
    <g id="Mobile-App" stroke="none" stroke-width="1" fill="none" fill-rule="evenodd">
        <g id="Home" transform="translate(-129.000000, -1380.000000)">
            <g id="Group-6" transform="translate(0.000000, 1368.000000)">
                <g id="Draw" transform="translate(108.000000, 12.000000)">
                    <g id="Group" transform="translate(21.000000, 0.000000)">
                        <rect id="Rectangle" x="0" y="0" width="27" height="27"></rect>
                        <path d="M25.50297,14.964381 C24.6373778,12.1599976 22.6610058,9.38721568 19.9387754,7.15569005 C17.2166404,4.92425602 14.0553222,3.48670725 11.036617,3.10684776 C7.87520352,2.70921814 5.23038077,3.50869092 3.58918741,5.3577923 C1.94799406,7.20625249 1.5431295,9.84200284 2.45047606,12.7792042 C3.31606828,15.5829465 5.2924403,18.3562779 8.01467064,20.5878036 C10.7368056,22.8185964 13.8981238,24.2566948 16.9169244,24.6360963 C20.0782426,25.0337259 22.7230653,24.2341615 24.3642587,22.3857929 C26.005452,20.5365999 26.4104119,17.9009412 25.50297,14.964381 M15.7870787,9.35854531 C18.4972021,11.5803615 20.5465013,14.1302839 21.5559457,16.5383201 C22.5298323,18.8616275 22.1211546,21.292197 20.981204,22.5933554 C20.9482199,22.605538 20.9146639,22.6164383 20.8816799,22.6280713 C18.2323767,22.206168 15.1546625,21.2709461 12.6929678,19.2531201 C10.1696902,17.1848232 8.29341421,14.776787 7.40951872,12.4717077 C6.84678844,11.0037482 6.86451974,9.46937964 7.2700516,8.2224476 C7.31828835,8.08724803 7.45632552,7.78039265 7.78711902,7.46868254 C8.33840975,6.94876876 9.68112632,7.07169411 9.68112632,7.07169411 L9.70715128,6.99136212 L6.94316661,6.19619448 C5.50721775,7.81327656 5.25507112,10.4076243 6.25431535,13.0147959 C7.19588522,15.4709214 8.91505814,17.7474219 11.6512066,19.8157188 C14.1471246,21.7032 16.7192109,22.5020316 19.2760445,22.9708333 C16.3016675,23.2600102 12.4787623,21.9583022 9.19065584,19.2629211 C4.22284286,15.191454 2.32883557,9.46031138 4.96803387,6.48720331 C7.60656488,3.51473643 13.7954539,4.40855578 18.7626949,8.48057252 C23.3561488,12.2451843 25.3210813,17.4283839 23.5050535,20.5385235 C23.7230722,19.1813067 23.4550055,17.5903303 22.7611018,15.9355096 C21.6845453,13.3690994 20.0750967,11.3428463 16.9473345,8.9536794 C14.0546549,6.74477863 10.8350904,5.66831163 7.84860658,5.10452211 L7.10217628,5.45827599 C9.88894472,5.98432687 13.130149,7.18133766 15.7870787,9.35854531" id="Fill-7" fill="#999999" fill-rule="nonzero"></path>
                    </g>
                </g>
            </g>
        </g>
    </g>
</svg>