<?xml version="1.0" encoding="UTF-8"?>
<svg width="27px" height="27px" viewBox="0 0 27 27" version="1.1" xmlns="http://www.w3.org/2000/svg" xmlns:xlink="http://www.w3.org/1999/xlink">
    <title>Group 3</title>
    <g id="Mobile-App" stroke="none" stroke-width="1" fill="none" fill-rule="evenodd">
        <g id="Home" transform="translate(-220.000000, -1380.000000)">
            <g id="Group-6" transform="translate(0.000000, 1368.000000)">
                <g id="Kids-corner" transform="translate(204.000000, 12.000000)">
                    <g id="Group-3" transform="translate(16.000000, 0.000000)">
                        <rect id="Rectangle" x="0" y="0" width="27" height="27"></rect>
                        <g id="sentiment_satisfied_black_24dp" transform="translate(2.000000, 2.000000)" fill="#999999" fill-rule="nonzero">
                            <g id="boy-girl">
                                <path d="M3.84799236,6.69394182 C4.16796267,6.69394182 4.42883019,6.9536614 4.42883019,7.27473207 C4.42883019,7.59580274 4.1700007,7.85552232 3.84799236,7.85552232 C3.52802204,7.85552232 3.26919255,7.59580274 3.26919255,7.27473207 C3.26919255,6.95570644 3.52802204,6.69394182 3.84799236,6.69394182 L3.84799236,6.69394182 Z M4.55722592,10.3995472 C4.43290625,10.3136557 4.40233583,10.1418727 4.48793299,10.0171255 C4.57353014,9.89237827 4.74472445,9.86170273 4.86904413,9.94759425 C5.1482539,10.1418727 5.42134958,10.2379894 5.68833118,10.2379894 C5.95531278,10.2379894 6.23044649,10.1398276 6.50761823,9.94759425 C6.63193791,9.86170273 6.80109419,9.89237827 6.88669135,10.0171255 C6.9722885,10.1418727 6.94171809,10.3116107 6.81739841,10.3975022 C6.44647741,10.6531317 6.06944232,10.784014 5.68629315,10.784014 C5.30518201,10.7881041 4.92814693,10.6592668 4.55722592,10.3995472 L4.55722592,10.3995472 Z M7.65502771,6.69394182 C7.97499803,6.69394182 8.23382752,6.9536614 8.23382752,7.27473207 C8.23382752,7.59580274 7.97499803,7.85552232 7.65502771,7.85552232 C7.33505739,7.85552232 7.0762279,7.59580274 7.0762279,7.27473207 C7.07418987,6.95570644 7.33505739,6.69394182 7.65502771,6.69394182 L7.65502771,6.69394182 Z M0.240683698,17.1358961 C0.705353966,15.4569215 1.31880024,14.9497525 2.56403504,13.9149643 C2.75357159,13.7574965 2.95737434,13.5898035 3.15302498,13.4221106 C3.15710104,13.4180205 3.16117709,13.4159755 3.16525315,13.4118854 C3.20805172,13.3546244 3.23862214,13.3178137 3.26715452,13.2810031 C3.41185447,13.0949048 3.5320981,12.9415271 3.62992342,12.7370235 C3.01647714,12.4077727 2.44379142,11.9128739 1.95670285,11.2461922 C1.58781987,11.3402638 1.27803969,11.4220653 1.0192102,11.4915965 C0.719620159,11.5693079 0.487285025,11.630659 0.334432963,11.6654246 C0.314052688,11.6695146 0.291634385,11.6715597 0.267178056,11.6715597 C0.116364021,11.6674696 -0.00387960067,11.5427224 9.58065471e-05,11.3913897 L0.157124571,4.76751782 C0.157124571,4.75729264 0.157124571,4.74706746 0.159162599,4.73684228 C0.197885121,4.34419535 0.287558331,3.96586367 0.420030117,3.60184725 C0.552501904,3.23578578 0.727772269,2.88608461 0.941765155,2.54865366 C1.51852693,1.63247749 2.24202669,0.982156009 3.08984613,0.567013682 C3.93358951,0.153916391 4.89961454,-0.0240017492 5.97365503,0.00258371999 C6.89484346,0.025079117 7.78953752,0.25412316 8.58436825,0.712211245 C9.32621025,1.13962379 9.9824551,1.76540483 10.494,2.60386963 C10.6835366,2.91471512 10.8465788,3.23987586 10.9831266,3.58139688 C11.1176364,3.9167828 11.2276899,4.26443894 11.3132871,4.62641033 C11.3214392,4.65095076 11.3255152,4.67753623 11.3255152,4.7041217 L11.3255152,11.1909762 C11.3255152,11.2768677 11.2847547,11.3627592 11.2093477,11.4159302 C11.085028,11.5038667 10.9158717,11.4731912 10.8282365,11.348444 C10.7039168,11.1725709 10.5449507,11.0232832 10.3554141,10.898536 C10.2127522,10.8044644 10.051748,10.724708 9.87443965,10.6572218 C9.307868,11.5815781 8.566026,12.2748453 7.74470092,12.708393 C7.81806991,12.9231218 7.92200931,13.0846796 8.04836702,13.2871382 L8.10339376,13.3750747 C8.53545559,13.5713982 8.95732728,13.8208926 9.35474264,14.1910441 C9.76846222,14.5734659 10.1516114,15.0785898 10.4899239,15.7759471 C10.7079929,16.221765 10.8710351,16.677808 11.009621,17.1379412 L10.4348972,17.1379412 C10.3146536,16.7555194 10.1740297,16.3792328 9.9967213,16.0152163 C9.69101717,15.3833002 9.34862855,14.9313472 8.98382163,14.5939163 C8.68015554,14.3117013 8.35814719,14.1092427 8.02594871,13.9456398 C7.81603188,14.2074044 7.57350661,14.4262233 7.30652501,14.6000514 C6.79701814,14.9354373 6.20395214,15.1072203 5.61088614,15.1092653 C5.01782014,15.1113104 4.42475414,14.9395274 3.91932332,14.5877811 C3.821498,14.520295 3.72774873,14.4446286 3.63807553,14.3648722 C3.5178319,14.2626204 3.40166434,14.1480984 3.29161085,14.0253962 C3.15302498,14.1399182 3.03074333,14.2442151 2.91253774,14.3423768 C1.80181276,15.2626431 1.23524111,15.7350464 0.811331396,17.1399862 L0.240683698,17.1399862 L0.240683698,17.1358961 Z M7.06399974,12.1214676 C7.12717859,12.0928371 7.18831941,12.0642066 7.25353629,12.0335311 C7.2616884,12.029441 7.26984051,12.0253509 7.27799262,12.0233059 C8.20937119,11.5549926 9.03069627,10.6940324 9.55039328,9.50995652 C9.73177772,9.09276916 9.81533685,8.71443748 9.85202134,8.3361058 C9.96207483,7.17248027 9.86017345,5.59984751 9.86017345,4.39327621 C8.90841462,4.54051881 8.51099926,3.90246755 8.33572889,2.94948073 C6.39145067,4.72866213 4.1251641,5.12130906 1.58781987,4.33397017 C1.58781987,5.52827125 1.49203258,7.02932774 1.58578184,8.18477313 C1.61431423,8.53447431 1.68156913,8.88622051 1.83034514,9.27886744 C2.92884196,12.1664584 5.18290036,12.9313019 7.06399974,12.1214676 L7.06399974,12.1214676 Z M4.12924015,12.9701576 C4.01307258,13.219652 3.87041066,13.4016602 3.69921635,13.6225241 C3.7990797,13.7513614 3.90709515,13.8679284 4.02326272,13.9701802 C4.043643,13.9865405 4.06402327,14.0029008 4.08644157,14.0192611 C4.53480762,14.3669172 5.06265674,14.5468804 5.58846783,14.5550606 C6.11427893,14.5632407 6.64212805,14.3996378 7.09457015,14.0601618 C7.27187854,13.9272345 7.4389968,13.7656766 7.5877728,13.5795783 L7.58573477,13.5775333 C7.44511088,13.3546244 7.33098134,13.1726162 7.24334616,12.9394821 C6.23248452,13.334174 5.14010179,13.3566694 4.12924015,12.9701576 L4.12924015,12.9701576 Z M23.2765002,23.4580654 C22.887237,22.5377992 21.9191739,22.1185668 20.9674151,21.7075145 C20.8064109,21.6379833 20.6454068,21.5684521 20.4782885,21.4907407 C20.4558702,21.5173262 20.4354899,21.5439117 20.4130716,21.5704971 C20.2826379,21.732055 20.1297858,21.8731625 19.9585915,21.9979097 C19.4857691,22.3414757 18.8763989,22.5377992 18.2466484,22.5684747 C17.620974,22.5991503 16.9708432,22.4662229 16.4164997,22.1471973 C16.141366,21.9897295 15.8886506,21.7852259 15.6746577,21.5336865 C15.5218056,21.6073078 15.3648775,21.678884 15.2038733,21.7525053 C14.290837,22.1696927 13.2595951,22.642096 12.88256,23.4294349 C12.7990009,23.603263 12.733784,23.7934514 12.6828333,23.997955 L12.140718,23.997955 C12.1447941,23.9734145 12.1509082,23.9509191 12.1570223,23.9263787 C12.216125,23.6646141 12.2996842,23.4232998 12.4056616,23.2003909 C12.8662558,22.2392239 13.989209,21.7238748 14.9858044,21.2698768 C15.2079494,21.16967 15.4219423,21.0715083 15.6135169,20.9733466 C15.7459887,20.7995185 15.8519661,20.6134202 15.9355252,20.4130067 C16.0068562,20.2412237 16.0598449,20.0612605 16.0965294,19.8710721 C15.8947647,19.750415 15.7031901,19.6093075 15.5197676,19.4477497 C14.7738495,18.7831129 14.2500765,18.2411784 13.9138019,17.6133523 C13.5714133,16.9773461 13.4287514,16.2697636 13.4470937,15.2881462 L13.5000824,12.443501 C13.5000824,12.4128255 13.5061965,12.384195 13.5163866,12.3576095 L12.8560657,12.1490158 C12.6013122,6.5660673 19.6691916,6.19387073 22.6324836,9.74814346 C23.3478312,10.6070586 23.3784016,11.0712818 23.3600594,12.1919616 C23.3539453,12.555978 23.2989185,12.8750036 23.1318003,12.9936157 C23.0543552,13.0488317 22.962644,13.0692821 22.8546286,13.0611019 L22.8546286,15.4946949 C22.8546286,16.8423737 22.3736541,17.9671435 21.6379261,18.8015182 C21.2221685,19.2718766 20.7248898,19.6481632 20.1868506,19.920153 C20.219459,20.0939811 20.2642956,20.259629 20.3193224,20.4170968 C20.3865773,20.6052401 20.4742124,20.7852033 20.5781518,20.9549413 C20.7595363,21.0387877 20.9674151,21.1287693 21.1752939,21.2187509 C22.22284,21.6707039 23.2907664,22.132882 23.7635888,23.2515168 C23.8553,23.4703357 23.9347831,23.717785 24,24 L23.4558467,24 C23.404896,23.7975414 23.3437551,23.6175783 23.2765002,23.4580654 Z M16.587694,20.1205665 C16.5469335,20.2943946 16.4939448,20.4600425 16.4266898,20.6216004 C16.3431307,20.8240589 16.2351153,21.0162923 16.1087576,21.1983006 C16.2493815,21.3557683 16.4103856,21.4907407 16.583618,21.6032177 C17.0523643,21.905883 17.6168979,22.0490356 18.1712414,22.0367653 C18.7235468,22.0224501 19.2636241,21.8547571 19.6854958,21.5336865 C19.7975873,21.447795 19.9015267,21.3516783 19.995276,21.2453364 C20.0238084,21.2105708 20.0503027,21.1758052 20.0747591,21.1410395 C19.9769337,20.9692565 19.8933746,20.7872483 19.8240817,20.5970599 C19.771093,20.4518624 19.7282944,20.3005297 19.6936479,20.147152 C19.1535706,20.3414304 18.6073793,20.4375471 18.071378,20.429367 C17.7371415,20.4211868 17.4090191,20.376196 17.0890488,20.2903045 C16.9178545,20.2453137 16.7507362,20.1900978 16.587694,20.1205665 Z M17.0686685,19.7279196 L17.0768206,19.7299646 C17.4151332,19.8342615 17.7677119,19.8853874 18.1223287,19.8853874 C18.6909384,19.8853874 19.2677002,19.7565501 19.8016634,19.5111458 C20.3376646,19.2657414 20.8349433,18.9058151 21.2405108,18.445682 C21.8967556,17.7033339 22.3227034,16.6992211 22.3227034,15.4906048 L22.3227034,13.0304264 C22.3165893,12.8606884 22.292133,12.7052657 22.2472964,12.5641582 C22.2024598,12.4291858 22.1392809,12.3085286 22.0536837,12.2062768 C21.7275993,11.8238551 21.4198572,11.8381703 20.9796433,11.8606657 C20.9409207,11.8627108 20.9001602,11.8647558 20.8451334,11.8668009 C19.104658,11.9445122 17.9613245,11.9424672 17.0360601,11.8606657 C16.1821265,11.7849994 15.5116155,11.645937 14.733089,11.4393883 C14.65972,11.6132164 14.5741229,11.7829544 14.4742595,11.9465573 C14.3458638,12.157196 14.1991258,12.3596546 14.0299695,12.5518879 L13.9769808,15.2963264 C13.9606766,16.181827 14.0849963,16.8096531 14.3805102,17.3618128 C14.6821383,17.9241978 15.1692269,18.4272766 15.8703083,19.0510127 C16.0557688,19.2166606 16.2534575,19.355723 16.4613363,19.4702451 C16.4857926,19.4763802 16.510249,19.4886504 16.5306292,19.5009206 C16.7058996,19.5929472 16.885246,19.6686136 17.0686685,19.7279196 Z M16.958615,17.8771619 C16.8363334,17.7974055 16.8016869,17.6317576 16.88117,17.5090554 C16.960653,17.3863533 17.1257333,17.3515877 17.2480149,17.4313441 C17.549643,17.6276675 17.8410809,17.7340094 18.1162146,17.7380995 C18.3831962,17.7421896 18.6481398,17.6460729 18.9090073,17.4436143 C19.0251749,17.3536327 19.1922931,17.3740831 19.2819664,17.4906501 C19.3716396,17.6072172 19.3512593,17.7749101 19.2350917,17.8648917 C18.8743609,18.1450617 18.4993638,18.275944 18.1101006,18.2698089 C17.7269514,18.2636738 17.3438022,18.1287014 16.958615,17.8771619 L16.958615,17.8771619 Z M15.9681337,14.5417081 C16.2840279,14.5417081 16.5408194,14.7993826 16.5408194,15.1163632 C16.5408194,15.4333438 16.2840279,15.6910183 15.9681337,15.6910183 C15.6522394,15.6910183 15.3954479,15.4333438 15.3954479,15.1163632 C15.3954479,14.7993826 15.6522394,14.5417081 15.9681337,14.5417081 L15.9681337,14.5417081 Z M20.292828,14.5417081 C20.6087223,14.5417081 20.8655137,14.7993826 20.8655137,15.1163632 C20.8655137,15.4333438 20.6087223,15.6910183 20.292828,15.6910183 C19.9769337,15.6910183 19.7201423,15.4333438 19.7201423,15.1163632 C19.7181042,14.7993826 19.9748957,14.5417081 20.292828,14.5417081 L20.292828,14.5417081 Z" id="Shape"></path>
                            </g>
                        </g>
                    </g>
                </g>
            </g>
        </g>
    </g>
</svg>