<?xml version="1.0" encoding="UTF-8"?>
<svg width="27px" height="27px" viewBox="0 0 27 27" version="1.1" xmlns="http://www.w3.org/2000/svg" xmlns:xlink="http://www.w3.org/1999/xlink">
    <title>Group 3</title>
    <g id="Mobile-App" stroke="none" stroke-width="1" fill="none" fill-rule="evenodd">
        <g id="Competitions" transform="translate(-37.000000, -1534.000000)">
            <g id="Group-15" transform="translate(0.000000, 1522.000000)">
                <g id="Group-9" transform="translate(36.000000, 12.000000)">
                    <g id="Group-3" transform="translate(1.000000, 0.000000)">
                        <rect id="Rectangle-Copy" x="0" y="0" width="27" height="27"></rect>
                        <g id="Book" transform="translate(4.000000, 5.000000)" stroke="#999999" stroke-linecap="round" stroke-linejoin="round" stroke-width="2">
                            <path d="M0,0 L6,0 C8.209139,0 10,1.790861 10,4 L10,18 C10,16.3431458 8.65685425,15 7,15 L0,15 L0,0 Z" id="Path"></path>
                            <path d="M20,0 L14,0 C11.790861,0 10,1.790861 10,4 L10,18 C10,16.3431458 11.3431458,15 13,15 L20,15 L20,0 Z" id="Path"></path>
                        </g>
                    </g>
                </g>
            </g>
        </g>
    </g>
</svg>