<?xml version="1.0" encoding="UTF-8"?>
<svg width="720px" height="408px" viewBox="0 0 720 408" version="1.1" xmlns="http://www.w3.org/2000/svg" xmlns:xlink="http://www.w3.org/1999/xlink">
    <title>TTR Brandmark Charcoal</title>
    <g id="Mobile-App" stroke="none" stroke-width="1" fill="none" fill-rule="evenodd">
        <g id="Artboard" transform="translate(-56.000000, -202.000000)" fill="#FFFFFF">
            <g id="TTR-Brandmark-Charcoal" transform="translate(56.000000, 202.000000)">
                <polygon id="Fill-1" points="0 0 38.58 48.198 680.882 48.198 719.454 0"></polygon>
                <polygon id="Fill-2" points="383.0489 75.5508 383.0489 407.1248 435.4869 407.1248 435.4869 123.4688 603.6299 123.4688 631.9199 74.6938"></polygon>
                <g id="Group-9" transform="translate(39.583687, 74.467300)">
                    <path d="M61.4857132,0 L89.7757132,48.776 L257.905713,48.776 L257.905713,186.761 C261.415713,194.053 264.326713,201.438 266.519713,208.85 C275.360713,238.635 272.183713,265.483 257.905713,285.344 L257.905713,332.424 L310.350713,332.424 L310.350713,0.851 L61.4857132,0 Z" id="Fill-3"></path>
                    <path d="M558.345013,332.6538 L524.205013,258.0808 L489.615013,258.0808 L489.615013,332.6538 L433.394013,332.6538 L433.394013,126.8558 L423.783013,82.6988 L567.923013,82.6988 C590.011013,82.6988 609.167013,101.8558 609.167013,123.9308 L609.167013,227.6648 L580.858013,256.0078 L618.780013,332.6538 L558.345013,332.6538 Z M489.615013,213.9248 L542.511013,213.9248 C548.367013,213.9248 552.948013,209.3318 552.948013,203.5088 L552.948013,134.7788 C552.948013,130.1858 549.192013,126.8558 545.011013,126.8558 L489.615013,126.8558 L489.615013,213.9248 Z" id="Fill-5"></path>
                    <path d="M246.788413,208.2378 C237.708413,177.6218 216.976413,147.3508 188.420413,122.9888 C159.865413,98.6278 126.703413,82.9338 95.0374132,78.7868 C61.8744132,74.4458 34.1304132,83.1738 16.9144132,103.3608 C-0.301586778,123.5408 -4.54858678,152.3158 4.96941322,184.3818 C14.0494132,214.9908 34.7814132,245.2678 63.3374132,269.6298 C91.8924132,293.9838 125.054413,309.6838 156.721413,313.8258 C189.883413,318.1668 217.627413,309.4378 234.843413,289.2588 C252.059413,269.0708 256.307413,240.2968 246.788413,208.2378 M144.869413,147.0378 C173.298413,171.2938 194.795413,199.1318 205.384413,225.4208 C215.600413,250.7848 211.313413,277.3198 199.355413,291.5248 C199.009413,291.6578 198.657413,291.7768 198.311413,291.9038 C170.520413,287.2978 138.235413,277.0878 112.412413,255.0588 C85.9434132,232.4788 66.2614132,206.1898 56.9894132,181.0248 C51.0864132,164.9988 51.2724132,148.2478 55.5264132,134.6348 C56.0324132,133.1588 57.4804132,129.8088 60.9504132,126.4058 C66.7334132,120.7298 80.8184132,122.0718 80.8184132,122.0718 L81.0914132,121.1948 L52.0974132,112.5138 C37.0344132,130.1678 34.3894132,158.4908 44.8714132,186.9538 C54.7484132,213.7678 72.7824132,238.6208 101.484413,261.2008 C127.666413,281.8068 154.647413,290.5278 181.468413,295.6458 C150.267413,298.8028 110.165413,284.5918 75.6734132,255.1658 C23.5614132,210.7168 3.69341322,148.1488 31.3784132,115.6908 C59.0564132,83.2398 123.977413,92.9978 176.083413,137.4528 C224.268413,178.5518 244.880413,235.1378 225.830413,269.0918 C228.117413,254.2748 225.305413,236.9058 218.026413,218.8398 C206.733413,190.8218 189.850413,168.7008 157.040413,142.6178 C126.696413,118.5028 92.9234132,106.7508 61.5954132,100.5958 L53.7654132,104.4578 C82.9984132,110.2008 116.998413,123.2688 144.869413,147.0378" id="Fill-7"></path>
                </g>
            </g>
        </g>
    </g>
</svg>