<?xml version="1.0" encoding="UTF-8"?>
<svg width="22px" height="15px" viewBox="0 0 22 15" version="1.1" xmlns="http://www.w3.org/2000/svg" xmlns:xlink="http://www.w3.org/1999/xlink">
    <title>Group</title>
    <g id="Mobile-App" stroke="none" stroke-width="1" fill="none" fill-rule="evenodd">
        <g id="Registration" transform="translate(-51.000000, -436.000000)" fill-rule="nonzero" stroke="#008174" stroke-width="2">
            <g id="Group-2" transform="translate(30.000000, 207.000000)">
                <g id="Group" transform="translate(22.000000, 230.000000)">
                    <path d="M19,0 L9.23,0 C7.70046259,0 6.25582446,0.560335282 5.14641165,1.48543863 C5.05178378,1.56434574 4.95959479,1.64590665 4.87,1.73 C4.78040521,1.81409335 4.79848625,1.67036733 4.75606215,1.57966003 C4.35704179,0.726511357 3.50332578,0 2.5,0 C1.12,0 0,1.12 0,2.5 C0,3.88 1.12,5 2.5,5 C2.71,5 3.16,4.67 3.11,4.92 C3.06,5.17 3.02,5.43 3.01,5.7 C2.83,9.38 5.96,12.38 9.69,11.97 C12.24,11.69 14.37,9.71 14.88,7.2 C15.03,6.49 15.03,5.8 14.94,5.14 C14.85,4.54 15.32,4.01 15.93,4.01 L18.69,4.01 C19.56,4 20,3.55 20,3 L20,1 C20,0.45 19.55,0 19,0 Z M9,9 C7.34,9 6,7.66 6,6 C6,4.34 7.34,3 9,3 C10.66,3 12,4.34 12,6 C12,7.66 10.66,9 9,9 Z" id="Shape"></path>
                </g>
            </g>
        </g>
    </g>
</svg>